<?xml version="1.0" encoding="UTF-8"?>
<svg id="Capa_2" data-name="Capa 2" xmlns="http://www.w3.org/2000/svg" viewBox="0 0 149.87 62.94">
  <defs>
    <style>
      .cls-1 {
        fill: #262626;
      }

      .cls-1, .cls-2, .cls-3 {
        stroke-width: 0px;
      }

      .cls-2 {
        fill: none;
      }

      .cls-3 {
        fill: #fff;
      }
    </style>
  </defs>
  <g id="Capa_1-2" data-name="Capa 1">
    <g id="Capa_3" data-name="Capa 3">
      <g>
        <polygon class="cls-2" points="72.06 50.56 77.08 50.56 74.57 43.37 72.06 50.56"/>
        <path class="cls-2" d="m133.95,51.63c-.39,0-.72.14-.99.43-.27.29-.4.7-.4,1.23s.13.95.4,1.23.6.42.99.42.72-.14.99-.42c.26-.28.4-.69.4-1.23s-.13-.95-.4-1.23c-.27-.28-.59-.43-.99-.43Z"/>
        <path class="cls-2" d="m91.23,46.47c-.54-.3-1.13-.45-1.77-.45-1.01,0-1.85.34-2.52,1.03-.67.68-1,1.65-1,2.88s.33,2.18,1,2.84c.67.65,1.51.98,2.52.98.63,0,1.21-.15,1.76-.45.55-.3.98-.74,1.3-1.32.32-.58.48-1.28.48-2.1s-.16-1.52-.48-2.1c-.32-.58-.75-1.02-1.29-1.32Z"/>
        <path class="cls-3" d="m72.64,39.72l-6.27,16.84h3.6l1.21-3.43h6.83l1.18,3.43h3.6l-6.25-16.84h-3.89Zm-.58,10.84l2.51-7.19,2.51,7.19h-5.02Z"/>
        <path class="cls-3" d="m93.01,45.59c-.4-.8-.97-1.43-1.71-1.87-.74-.44-1.63-.66-2.65-.66-1.14,0-2.18.29-3.11.87-.93.58-1.67,1.39-2.22,2.43-.55,1.04-.82,2.23-.82,3.58s.27,2.52.82,3.55c.55,1.03,1.29,1.83,2.22,2.39.93.56,1.97.84,3.11.84,1.01,0,1.89-.24,2.62-.71.73-.47,1.32-1.15,1.75-2.02v8.95h3.38v-19.74h-3.38v2.39Zm-.48,6.4c-.32.58-.76,1.02-1.3,1.32-.55.3-1.13.45-1.76.45-1.01,0-1.85-.33-2.52-.98-.67-.65-1-1.6-1-2.84s.33-2.2,1-2.88c.67-.68,1.51-1.03,2.52-1.03.64,0,1.23.15,1.77.45.54.3.97.74,1.29,1.32.32.58.48,1.28.48,2.1s-.16,1.52-.48,2.1Z"/>
        <path class="cls-3" d="m107.41,50.29c0,1.17-.29,2.08-.87,2.7s-1.36.94-2.34.94-1.67-.29-2.22-.88c-.54-.58-.82-1.4-.82-2.46v-16.7s-1.53-9.18-1.53-9.18c.48.84,1.15,1.45,2.03,1.86.87.41,1.86.52,2.98.33s2.07-.61,2.87-1.3c.8-.68,1.37-1.58,1.7-2.69.33-1.11.39-2.35.16-3.73-.23-1.38-.67-2.54-1.34-3.49s-1.49-1.61-2.47-2.01c-.98-.39-2.02-.5-3.13-.32s-2.02.6-2.72,1.25-1.15,1.45-1.33,2.39l-.45-2.74-3.36.55,3.19,19.6v16.61s.02,0,.02,0c.01,1.78.47,3.17,1.37,4.17.92,1.01,2.15,1.52,3.69,1.52,1.06,0,2-.25,2.81-.76.81-.51,1.4-1.21,1.75-2.11v2.7h3.4v-13.37h-3.4v7.09Zm-8.43-29.41c-.19-1.18-.01-2.16.53-2.96s1.33-1.28,2.34-1.45c1.05-.17,1.95.04,2.69.61.75.58,1.22,1.46,1.41,2.66s.03,2.18-.5,2.95c-.52.78-1.31,1.25-2.36,1.42-1.02.17-1.91-.04-2.68-.63-.77-.58-1.25-1.45-1.44-2.61Z"/>
        <rect class="cls-3" x="112.46" y="43.2" width="3.4" height="13.37"/>
        <path class="cls-3" d="m114.17,38.71c-.63,0-1.13.17-1.52.52-.39.35-.58.79-.58,1.34s.19.97.58,1.32c.39.35.89.52,1.52.52s1.13-.17,1.52-.52c.39-.35.58-.78.58-1.32s-.19-.99-.58-1.34c-.39-.35-.89-.52-1.52-.52Z"/>
        <path class="cls-3" d="m125.54,49.95c.46,0,.85.11,1.19.34.33.22.58.53.74.93h2.18c-.21-.97-.67-1.74-1.38-2.31s-1.61-.86-2.69-.86c-.83,0-1.55.18-2.18.55-.63.37-1.11.88-1.45,1.54-.34.66-.51,1.41-.51,2.25s.17,1.59.51,2.25c.34.66.83,1.17,1.45,1.54.63.37,1.35.55,2.18.55,1.08,0,1.98-.29,2.69-.86.71-.57,1.17-1.34,1.38-2.31h-2.18c-.16.39-.41.69-.74.92-.33.22-.73.34-1.19.34-.6,0-1.09-.22-1.46-.66-.37-.44-.55-1.03-.55-1.76s.18-1.33.55-1.77c.37-.44.86-.66,1.46-.66Z"/>
        <path class="cls-3" d="m135.74,50.26c-.53-.28-1.12-.42-1.79-.42s-1.27.14-1.8.42c-.53.28-.95.68-1.25,1.2-.3.52-.45,1.13-.45,1.83s.15,1.31.45,1.83c.3.52.72.92,1.25,1.2.53.28,1.13.42,1.8.42s1.26-.14,1.79-.42c.53-.28.94-.68,1.24-1.2.3-.52.45-1.13.45-1.83s-.15-1.31-.45-1.83c-.3-.52-.71-.92-1.24-1.2Zm-.8,4.26c-.27.28-.59.42-.99.42s-.72-.14-.99-.42-.4-.69-.4-1.23.13-.95.4-1.23c.27-.28.6-.43.99-.43s.72.14.99.43c.26.29.4.7.4,1.23s-.13.95-.4,1.23Z"/>
        <path class="cls-3" d="m149.16,50.62c-.47-.51-1.12-.76-1.95-.76-.49,0-.94.12-1.34.37-.41.25-.72.58-.96,1-.2-.44-.5-.78-.89-1.02-.39-.24-.85-.36-1.36-.36s-.92.11-1.28.33c-.37.22-.64.51-.81.89v-1.14h-2.06v6.72h2.06v-3.57c0-.47.12-.82.36-1.07.24-.25.57-.37.98-.37s.7.12.93.36c.22.24.34.57.34.99v3.66h2.06v-3.57c0-.46.12-.81.36-1.07.24-.25.56-.38.97-.38s.7.12.93.36c.23.24.34.57.34.99v3.66h2.05v-3.9c0-.91-.24-1.62-.71-2.13Z"/>
        <path class="cls-3" d="m119.76,54.05c-.37,0-.7.13-1,.4-.3.27-.45.6-.45,1.01s.14.75.41,1.03c.27.27.62.41,1.03.41s.75-.14,1.03-.42c.27-.28.41-.62.41-1.03s-.14-.74-.43-1-.62-.4-.99-.4Z"/>
        <path class="cls-1" d="m97.93,14.28l.45,2.74c.19-.94.63-1.74,1.33-2.39s1.61-1.07,2.72-1.25,2.16-.07,3.13.32c.98.4,1.8,1.06,2.47,2.01s1.11,2.1,1.34,3.49c.23,1.38.17,2.62-.16,3.73-.33,1.11-.9,2-1.7,2.69-.8.68-1.76,1.12-2.87,1.3s-2.1.07-2.98-.33c-.87-.4-1.55-1.02-2.03-1.86l1.54,9.18,34.54-5.38c3.91-.61,7.21-2.75,9.38-5.71,2.17-2.96,3.2-6.75,2.59-10.67-1.22-7.83-8.55-13.19-16.38-11.97L12.14,18.72c-3.91.61-7.21,2.75-9.38,5.71C.6,27.4-.44,31.19.17,35.1c1.22,7.83,8.55,13.19,16.38,11.97l40.01-6.23-5.94-5.3h-.01s-5.24-4.68-5.24-4.68l-1.92-1.71h0s-.31-.28-.31-.28l1.25,7.69-3.36.55-2.74-16.82,3.36-.55,1.23,7.55,5.01-8.57,4.05-.66-5.77,9.43,8.34,7.42,5.99,5.32,37.27-5.8-3.19-19.6,3.36-.55Zm23.33-.73c.42-1.12,1.1-2.03,2.04-2.74.94-.71,2.05-1.16,3.33-1.37,1.29-.21,2.49-.13,3.6.24,1.11.37,2.05,1.02,2.8,1.95.75.93,1.24,2.08,1.47,3.46.23,1.38.13,2.63-.3,3.74-.42,1.11-1.1,2.03-2.04,2.74-.94.71-2.05,1.18-3.33,1.39-1.29.21-2.49.12-3.6-.26-1.11-.38-2.05-1.03-2.8-1.95-.75-.92-1.24-2.07-1.47-3.45-.23-1.38-.13-2.63.29-3.75Zm-7.23-1.89l.41,2.52c.35-.92.9-1.69,1.63-2.31.73-.62,1.6-1.01,2.6-1.17l.59,3.6-.98.16c-2.46.4-3.51,1.74-3.13,4.03l1.04,6.36-3.36.55-2.15-13.2,3.36-.55ZM14.79,41.38l-2.74-16.82,3.36-.55,2.32,14.24,5.65-.92.42,2.57-9,1.47Zm22.5-6.75c-.42,1.11-1.1,2.03-2.04,2.74-.93.71-2.05,1.18-3.33,1.39-1.29.21-2.49.12-3.6-.26-1.11-.38-2.05-1.03-2.8-1.95-.75-.92-1.24-2.07-1.47-3.45-.23-1.38-.13-2.63.29-3.75.42-1.12,1.1-2.03,2.04-2.74.94-.71,2.05-1.17,3.33-1.37,1.29-.21,2.49-.13,3.6.24,1.11.37,2.05,1.02,2.8,1.95.75.93,1.24,2.08,1.47,3.46.23,1.38.13,2.63-.3,3.74Zm30.75-5.01c-.42,1.11-1.1,2.03-2.04,2.74-.93.71-2.05,1.18-3.33,1.39-1.29.21-2.49.12-3.6-.26-1.11-.38-2.05-1.03-2.8-1.95-.75-.92-1.24-2.07-1.47-3.45-.23-1.38-.13-2.63.29-3.75.42-1.12,1.1-2.03,2.04-2.74.94-.71,2.05-1.16,3.33-1.37,1.29-.21,2.49-.13,3.6.24,1.11.37,2.05,1.02,2.8,1.95.75.93,1.24,2.08,1.47,3.46s.13,2.63-.3,3.74Zm22.4-.57l-1.19-7.29c-.17-1.02-.55-1.76-1.16-2.22-.61-.46-1.36-.62-2.27-.47-.94.15-1.64.57-2.1,1.25-.46.68-.6,1.58-.41,2.71l1.14,7-3.33.54-1.19-7.29c-.17-1.02-.55-1.76-1.16-2.22-.61-.46-1.36-.62-2.27-.47-.94.15-1.64.57-2.1,1.25-.46.68-.6,1.58-.41,2.71l1.14,7-3.36.55-2.15-13.2,3.36-.55.41,2.5c.21-.91.65-1.67,1.33-2.26.68-.59,1.52-.97,2.52-1.13,1.06-.17,2.03-.07,2.9.31.87.38,1.58,1.01,2.13,1.9.27-.97.76-1.79,1.49-2.46.73-.67,1.6-1.08,2.62-1.25,1.6-.26,2.95.03,4.04.87,1.09.84,1.78,2.17,2.08,4l1.25,7.67-3.33.54Z"/>
        <path class="cls-1" d="m32.73,28.74c-.76-.55-1.61-.75-2.54-.6-.94.15-1.68.61-2.22,1.38-.54.77-.71,1.78-.51,3.03.2,1.25.69,2.16,1.44,2.71.76.55,1.61.75,2.54.6.94-.15,1.68-.61,2.22-1.38.54-.76.71-1.77.51-3.03-.2-1.25-.69-2.16-1.44-2.71Z"/>
        <path class="cls-1" d="m125.82,19.46c.76.55,1.61.75,2.54.6.94-.15,1.68-.61,2.22-1.38.54-.76.71-1.77.51-3.03-.2-1.25-.69-2.16-1.44-2.71-.76-.55-1.61-.75-2.54-.6-.94.15-1.68.61-2.22,1.38-.54.77-.71,1.78-.51,3.03.2,1.25.69,2.16,1.44,2.71Z"/>
        <path class="cls-1" d="m63.48,23.73c-.76-.55-1.61-.75-2.54-.6-.94.15-1.68.61-2.22,1.38-.54.77-.71,1.78-.51,3.03.2,1.25.69,2.16,1.44,2.71.76.55,1.61.75,2.54.6.94-.15,1.68-.61,2.22-1.38.54-.76.71-1.77.51-3.03-.2-1.25-.69-2.16-1.44-2.71Z"/>
        <path class="cls-1" d="m100.43,23.5c.77.58,1.67.79,2.68.63,1.05-.17,1.83-.64,2.36-1.42.53-.78.69-1.76.5-2.95s-.66-2.08-1.41-2.66c-.75-.58-1.64-.78-2.69-.61-1.02.17-1.8.65-2.34,1.45s-.72,1.78-.53,2.96c.19,1.16.67,2.03,1.44,2.61Z"/>
        <polygon class="cls-3" points="17.73 38.26 15.41 24.02 12.05 24.57 14.79 41.38 23.79 39.91 23.38 37.34 17.73 38.26"/>
        <path class="cls-3" d="m36.11,27.43c-.75-.93-1.69-1.58-2.8-1.95-1.11-.37-2.31-.45-3.6-.24-1.29.21-2.4.67-3.33,1.37-.94.71-1.61,1.62-2.04,2.74-.42,1.12-.52,2.37-.29,3.75.23,1.38.71,2.53,1.47,3.45.75.92,1.69,1.57,2.8,1.95,1.11.38,2.31.47,3.6.26,1.29-.21,2.4-.67,3.33-1.39.93-.71,1.61-1.63,2.04-2.74.42-1.11.52-2.36.3-3.74-.23-1.38-.72-2.54-1.47-3.46Zm-2.45,7.05c-.54.77-1.28,1.22-2.22,1.38-.94.15-1.78-.05-2.54-.6-.76-.55-1.24-1.46-1.44-2.71-.2-1.25-.04-2.26.51-3.03.54-.76,1.28-1.22,2.22-1.38.94-.15,1.78.05,2.54.6.76.55,1.24,1.46,1.44,2.71.2,1.25.03,2.26-.51,3.03Z"/>
        <path class="cls-3" d="m66.86,22.42c-.75-.93-1.69-1.58-2.8-1.95-1.11-.37-2.31-.45-3.6-.24-1.29.21-2.4.67-3.33,1.37-.94.71-1.61,1.62-2.04,2.74-.42,1.12-.52,2.37-.29,3.75.23,1.38.71,2.53,1.47,3.45.75.92,1.69,1.57,2.8,1.95,1.11.38,2.31.47,3.6.26,1.29-.21,2.4-.67,3.33-1.39.93-.71,1.61-1.63,2.04-2.74.42-1.11.52-2.36.3-3.74s-.72-2.54-1.47-3.46Zm-2.45,7.05c-.54.77-1.28,1.22-2.22,1.38-.94.15-1.78-.05-2.54-.6-.76-.55-1.24-1.46-1.44-2.71-.2-1.25-.04-2.26.51-3.03.54-.76,1.28-1.22,2.22-1.38.94-.15,1.78.05,2.54.6.76.55,1.24,1.46,1.44,2.71.2,1.25.03,2.26-.51,3.03Z"/>
        <path class="cls-3" d="m90.44,16.84c-1.09-.84-2.44-1.13-4.04-.87-1.02.17-1.89.58-2.62,1.25-.73.67-1.23,1.48-1.49,2.46-.55-.89-1.26-1.52-2.13-1.9-.87-.38-1.84-.48-2.9-.31-1,.16-1.84.54-2.52,1.13-.68.59-1.12,1.34-1.33,2.26l-.41-2.5-3.36.55,2.15,13.2,3.36-.55-1.14-7c-.18-1.13-.05-2.03.41-2.71.46-.68,1.16-1.09,2.1-1.25.91-.15,1.66.01,2.27.47.61.46.99,1.2,1.16,2.22l1.19,7.29,3.33-.54-1.14-7c-.18-1.13-.05-2.03.41-2.71.46-.68,1.16-1.09,2.1-1.25.91-.15,1.66.01,2.27.47.61.46.99,1.2,1.16,2.22l1.19,7.29,3.33-.54-1.25-7.67c-.3-1.83-.99-3.16-2.08-4Z"/>
        <path class="cls-3" d="m116.18,24.86l-1.04-6.36c-.37-2.29.67-3.63,3.13-4.03l.98-.16-.59-3.6c-1,.16-1.87.55-2.6,1.17-.73.62-1.27,1.39-1.63,2.31l-.41-2.52-3.36.55,2.15,13.2,3.36-.55Z"/>
        <path class="cls-3" d="m122.44,20.76c.75.92,1.69,1.57,2.8,1.95,1.11.38,2.31.47,3.6.26,1.29-.21,2.4-.67,3.33-1.39.93-.71,1.61-1.63,2.04-2.74.42-1.11.52-2.36.3-3.74-.23-1.38-.72-2.54-1.47-3.46-.75-.93-1.69-1.58-2.8-1.95-1.11-.37-2.31-.45-3.6-.24-1.29.21-2.4.67-3.33,1.37-.94.71-1.61,1.62-2.04,2.74-.42,1.12-.52,2.37-.29,3.75.23,1.38.71,2.53,1.47,3.45Zm2.45-7.04c.54-.76,1.28-1.22,2.22-1.38.94-.15,1.78.05,2.54.6.76.55,1.24,1.46,1.44,2.71.2,1.25.03,2.26-.51,3.03-.54.77-1.28,1.22-2.22,1.38-.94.15-1.78-.05-2.54-.6-.76-.55-1.24-1.46-1.44-2.71-.2-1.25-.04-2.26.51-3.03Z"/>
        <polygon class="cls-3" points="46.17 27.49 51.95 18.06 47.9 18.72 42.89 27.29 41.66 19.74 38.3 20.29 41.04 37.1 44.4 36.56 43.14 28.86 43.46 29.14 43.45 29.14 45.37 30.86 50.61 35.54 50.62 35.54 56.57 40.84 57.38 41.56 61.05 40.72 60.5 40.23 54.52 34.91 46.17 27.49"/>
      </g>
    </g>
  </g>
</svg>